# xmcd CD database file
# Copyright (C) 1993-1998 Ti Kan
#
# Track frame offsets:
#	182
#	14360
#	32325
#	45582
#	56670
#	70032
#	85380
#	105682
#	122800
#	141157
#	155580
#	163545
#	175325
#
# Disc length: 2538 seconds
#
# Revision: 1
# Processed by: cddbd v1.4b41PL1 Copyright (c) Steve Scherf et al.
# Submitted via: CDValet v3.31 - Copyright (c) 1997 Greg Leichner
#
DISCID=a809e80d
DTITLE=Billy Ebeling - Nothing's Too Good For You
DYEAR=1900
DGENRE=
TTITLE0=East Bound Train
TTITLE1=One Eye On The Road
TTITLE2=Let's See
TTITLE3=We Got a Good Thing
TTITLE4=Cryin' Shame
TTITLE5=Still Out of Reach
TTITLE6=Lazy Bastard
TTITLE7=Walk The Streets
TTITLE8=Rain On My Tin Roof
TTITLE9=Walk It
TTITLE10=Run For Cover
TTITLE11=What Did I Do
TTITLE12=Good Night
EXTD=
EXTT0=
EXTT1=
EXTT2=
EXTT3=
EXTT4=
EXTT5=
EXTT6=
EXTT7=
EXTT8=
EXTT9=
EXTT10=
EXTT11=
EXTT12=
PLAYORDER=
